<svg width="56" height="52" viewBox="0 0 56 52" fill="none" xmlns="http://www.w3.org/2000/svg">
<path d="M28 0C12.8154 0 0.5 11.8654 0.5 26.5C0.5 38.2086 8.37875 48.1417 19.3077 51.6463C20.6804 51.8914 21.125 51.0699 21.125 50.3721V45.4387C13.4754 47.0419 11.8827 42.3117 11.8827 42.3117C10.6315 39.2487 8.82792 38.4338 8.82792 38.4338C6.33229 36.7886 9.01813 36.824 9.01813 36.824C11.7796 37.0095 13.2325 39.5557 13.2325 39.5557C15.6846 43.6058 19.6652 42.4353 21.235 41.7574C21.4802 40.0459 22.1929 38.8755 22.9813 38.2152C16.874 37.5417 10.4527 35.2693 10.4527 25.1176C10.4527 22.2225 11.5275 19.8595 13.2852 18.0045C13.001 17.3354 12.0592 14.639 13.5533 10.9909C13.5533 10.9909 15.8633 10.2798 21.1181 13.7071C23.3113 13.1197 25.6625 12.826 28 12.815C30.3375 12.826 32.691 13.1197 34.8888 13.7071C40.139 10.2798 42.4444 10.9909 42.4444 10.9909C43.9408 14.6413 42.999 17.3376 42.7148 18.0045C44.4794 19.8595 45.545 22.2247 45.545 25.1176C45.545 35.2958 39.1123 37.5373 32.989 38.1931C33.9744 39.0146 34.875 40.6267 34.875 43.1V50.3721C34.875 51.0765 35.315 51.9047 36.7106 51.6441C47.6304 48.135 55.5 38.2042 55.5 26.5C55.5 11.8654 43.1869 0 28 0Z" fill="white"/>
</svg>
