<svg width="48" height="46" viewBox="0 0 48 46" fill="none" xmlns="http://www.w3.org/2000/svg">
<path fill-rule="evenodd" clip-rule="evenodd" d="M40.5467 39.1972H33.5819V28.5227C33.5819 25.9774 33.5323 22.7023 29.9603 22.7023C26.3309 22.7023 25.7774 25.4752 25.7774 28.3387V39.1972H18.8152V17.2462H25.498V20.2451H25.5933C26.5228 18.5188 28.7984 16.6993 32.1902 16.6993C39.2427 16.6993 40.5467 21.2444 40.5467 27.1568V39.1972ZM10.9559 14.2447C8.71564 14.2447 6.91141 12.4711 6.91141 10.2874C6.91141 8.10625 8.71564 6.33268 10.9559 6.33268C13.1857 6.33268 14.9965 8.10625 14.9965 10.2874C14.9965 12.4711 13.1857 14.2447 10.9559 14.2447ZM7.46493 39.1972H14.4429V17.2462H7.46493V39.1972ZM44.0181 0H3.96616C2.05487 0 0.5 1.48478 0.5 3.31457V42.6818C0.5 44.5126 2.05487 46 3.96616 46H44.0181C45.9347 46 47.5 44.5126 47.5 42.6818V3.31457C47.5 1.48478 45.9347 0 44.0181 0Z" fill="white"/>
</svg>
