<svg width="210" height="109" viewBox="0 0 210 109" fill="none" xmlns="http://www.w3.org/2000/svg">
<path d="M0.5 104C0.5 101.515 2.51472 99.5 5 99.5H203C205.485 99.5 207.5 101.515 207.5 104C207.5 106.485 205.485 108.5 203 108.5H104H5C2.51472 108.5 0.5 106.485 0.5 104Z" fill="#6A3810" stroke="black"/>
<path d="M94.3272 82.0002C88.3272 79.6002 82.1605 74.3336 79.8272 72.0002C81.8272 72.0002 83.6605 71.0001 84.3271 70.5C82.7271 70.5 80.6605 68.8333 79.8272 68C84.2272 62.4 84.6605 48.3333 84.3271 42C83.5271 19.2 91.3271 6.83333 95.3271 3.5C100.127 7.1 108.327 17.3333 111.827 22C113.827 21.2 117.66 21.6667 119.327 22C130.127 7.5998 140.16 1.99992 143.827 1C148.227 8.6 146.327 25.8333 144.827 33.5C148.027 36.3 149.494 48 149.827 53.5C149.327 55.5 152.327 64.5 152.827 65C153.227 65.4 148.994 67.1667 146.827 68C146.427 68.8 149.994 69.3333 151.827 69.5C151.427 71.1 146.327 75.5 143.827 77.5C151.427 80.3 153.994 89 154.327 93C157.527 92.2 160.66 89 161.827 87.5C166.227 81.5 166.327 73.6667 165.827 70.5C165.427 65.7 165.327 60.5 165.327 58.5C166.527 40.5 177.827 35.6667 183.327 35.5C181.727 37.1 180.994 39.1668 180.827 40.0002C186.427 34.4002 194.16 35.3336 197.327 36.5002C193.727 40.1002 194.827 45.6669 195.827 48.0002C195.827 50.0002 201.827 59.6669 205.327 64.5002C211.327 72.9002 207.827 80.3336 205.327 83.0002C204.527 86.2002 192.66 95.3336 186.827 99.5002H105.327V96.0002C103.727 94.4002 94.3271 96.3336 89.8271 97.5002C83.0271 99.1002 77.3272 98.5002 75.3272 98.0002C72.5272 97.2002 72.8272 94.3336 73.3272 93.0002C78.9272 87.4002 89.6605 83.3336 94.3272 82.0002Z" fill="#FEA833" stroke="black"/>
<path d="M86.8271 72C92.8271 72.4 99.3271 66.5 101.827 63.5C104.22 61 107.327 61.5 108.327 62.5C109.127 63.3 114.827 68.5 123.827 71C127.427 72 146.66 70.3333 151.327 70C143.327 79.2 134.66 82.8333 131.327 83.5C133.727 85.5 135.994 95 136.827 99.5H105.327C105.727 93.5 106.16 87.3333 106.327 85C95.9271 85 84.3271 76.3333 79.8271 72H86.8271Z" fill="white" stroke="black"/>
<path d="M79.3271 72C82.4938 74.6667 90.2271 80.5 95.8271 82.5C97.8271 83.3333 103.727 85.2 111.327 86" stroke="black"/>
<path d="M151.827 70C149.994 72.3333 144.627 77.8 137.827 81C135.827 82.1667 130.327 84.4 124.327 84" stroke="black"/>
<path d="M132.327 96.5C132.327 92.9 134.994 90 136.327 89L140.327 98.5C139.127 99.3 136.16 99.5 134.827 99.5C132.827 99.5 132.327 97.5 132.327 96.5Z" fill="#FEA833"/>
<path d="M112.827 88.5C112.327 88.8333 111.127 90 110.327 92L112.827 91C112.494 91.6667 112.027 93.2 112.827 94M147.327 83.5C141.994 84.8333 131.527 89.4 132.327 97C132.494 98 133.527 99.9 136.327 99.5C136.893 99.3869 137.684 99.2124 138.531 99M144.327 77.5C147.127 78.7 150.16 82 151.327 83.5C154.127 87.9 154.16 92.3333 153.827 94C153.427 96 150.327 97.1667 148.827 97.5H142.827C142.034 98.0286 140.179 98.5863 138.531 99M138.827 97C138.63 97.5 138.294 98.6 138.531 99" stroke="black"/>
<path d="M134.328 95.5C134.161 96.5 133.828 98.6 133.828 99M78.8276 95.5C78.4943 96.5 78.0276 98.5 78.8276 98.5M74.8273 94.5C74.6606 95.3333 74.4273 97.1 74.8273 97.5" stroke="black"/>
<path d="M172.327 50.5002C170.727 50.1002 166.994 58.3335 165.327 62.5002C164.927 53.3003 167.494 47.3334 168.827 45.5C172.027 38.6996 179.827 35.9998 183.327 35.5C182.127 35.9 180.827 39.0003 180.327 40.5005C187.127 34.101 194.827 35.1673 197.827 36.5005C193.427 39.7005 194.994 45.8333 196.327 48.4998C196.71 50.7954 201.394 58.462 203.988 62.4786C204.167 62.6944 204.284 62.8712 204.327 63.0005C204.219 62.8345 204.106 62.6603 203.988 62.4786C202.509 60.6911 196.801 56.2312 193.827 54.0005C192.919 54.9085 193.248 60.7635 193.316 61.4586C193.323 61.4769 193.327 61.491 193.327 61.5005C193.327 61.5464 193.323 61.529 193.316 61.4586C193.012 60.7025 186.581 52.5678 183.327 48.4998C181.727 48.0998 176.66 55.3331 174.327 58.9998C172.727 58.9998 172.327 53.3334 172.327 50.5002Z" fill="white" stroke="black"/>
<path d="M107.827 64.5002C106.627 64.1002 103.994 64.3335 102.827 64.5002C102.827 65.7003 104.494 66.6668 105.327 67C106.527 66.2 107.494 65.0001 107.827 64.5002Z" fill="black" stroke="black"/>
<path d="M102.827 69C102.827 70.1667 103.427 71.9 105.827 69.5C106.827 70.3333 109.027 71.3 109.827 68.5M84.3274 46C84.1608 43.5 85.0274 37 89.8274 31" stroke="black"/>
<path d="M103.827 27.5C103.327 27 101.327 27.5 100.327 24.5C101.66 24.6667 104.527 24.9 105.327 24.5C104.494 23.3333 102.927 20.7 103.327 19.5C104.827 20.5 108.527 22.3 111.327 21.5C113.327 21.5 117.727 21.6 119.327 22" stroke="black"/>
<path d="M140.327 31C136.727 27.8 129.827 25.3333 126.827 24.5C131.327 18.6667 141.427 5.9 143.827 1.5C144.494 2.66667 146.027 6.3 146.827 15.5C146.327 17 147.327 15 144.827 33.5C143.827 33.0568 141.527 31.9363 140.327 31Z" fill="black"/>
<path d="M89.3275 50.5C88.5275 49.3 87.6608 49.6667 87.3275 50C86.5275 50.8 86.9941 51.6667 87.3275 52L89.8275 54.5C88.2275 54.9 89.1608 61 89.8275 64C91.4275 68.4 93.4941 68.5 94.3275 68C95.5275 67.2 96.4941 65.6667 96.8275 65C97.2275 63 97.3275 60.1667 97.3275 59C98.1275 59.8 99.3275 59.6667 99.8275 59.5C100.327 58 99.8275 58.5 99.8275 58C99.8275 57.6 98.1608 56.5 97.3275 56C96.1275 55.2 91.4941 52 89.3275 50.5Z" fill="black"/>
<path d="M130.327 48.5L116.827 57C116.427 57.8 116.66 58 116.827 58C116.827 58.8 118.16 58.6667 118.827 58.5C118.427 63.3 120.66 66.5 121.827 67.5C123.827 67.9 125.327 67.3333 125.827 67C127.427 66.2 128.494 64 128.827 63C130.027 56.6 128.994 53.6667 128.327 53L131.327 50.5C132.527 48.9 131.16 48.5 130.327 48.5Z" fill="black"/>
<path d="M135.827 15.5L140.327 10.5C139.827 13 138.527 18.3 137.327 19.5C138.327 19.3333 140.327 18.8 140.327 18C140.327 17 139.327 23 137.327 23.5M126.827 24.5C129.827 25.3333 136.727 27.8 140.327 31C141.527 31.9363 143.827 33.0568 144.827 33.5C147.327 15 146.327 17 146.827 15.5C146.027 6.3 144.494 2.66667 143.827 1.5C141.427 5.9 131.327 18.6667 126.827 24.5ZM87.3275 50C87.6608 49.6667 88.5275 49.3 89.3275 50.5C91.4941 52 96.1275 55.2 97.3275 56C98.1608 56.5 99.8275 57.6 99.8275 58C99.8275 58.5 100.327 58 99.8275 59.5C99.3275 59.6667 98.1275 59.8 97.3275 59C97.3275 60.1667 97.2275 63 96.8275 65C96.4941 65.6667 95.5275 67.2 94.3275 68C93.4941 68.5 91.4275 68.4 89.8275 64C89.1608 61 88.2275 54.9 89.8275 54.5L87.3275 52C86.9941 51.6667 86.5275 50.8 87.3275 50ZM90.3271 59.5V61.5C90.4938 61.8333 91.0271 62.5 91.8271 62.5C92.1605 62.5 92.8271 62.3 92.8271 61.5V59.5C92.6605 59.1667 92.2271 58.5 91.8271 58.5C91.4938 58.3333 90.7271 58.3 90.3271 59.5ZM116.827 57L130.327 48.5C131.16 48.5 132.527 48.9 131.327 50.5L128.327 53C128.994 53.6667 130.027 56.6 128.827 63C128.494 64 127.427 66.2 125.827 67C125.327 67.3333 123.827 67.9 121.827 67.5C120.66 66.5 118.427 63.3 118.827 58.5C118.16 58.6667 116.827 58.8 116.827 58C116.66 58 116.427 57.8 116.827 57ZM120.327 59.5C120.619 58.8333 121.566 57.8 123.015 59C123.245 59.5 123.566 60.9 123.015 62.5C122.633 63 121.561 63.6 120.327 62C120.222 61.3333 120.075 59.9 120.327 59.5Z" stroke="black"/>
<path d="M125.827 25C126.627 25 138.16 9.33333 143.827 1.5C145.827 7.5 146.66 13.6667 146.827 16C147.227 22.4 145.66 30.6667 144.827 34C142.827 32.4 139.994 30.6667 138.827 30C135.627 28 128.827 25.8333 125.827 25Z" fill="#F5F5F5" stroke="black"/>
<path d="M137.327 16.5C137.827 16.5 139.127 15.9 140.327 13.5C140.16 15.1667 139.427 18.9 137.827 20.5C138.827 20.3333 140.927 19.8 141.327 19C141.327 19.8333 140.427 21.9 136.827 23.5" stroke="black"/>
<ellipse cx="121.837" cy="60.7476" rx="1.88241" ry="2.19172" transform="rotate(-3.41553 121.837 60.7476)" fill="white"/>
<ellipse cx="91.5409" cy="60.558" rx="1.65505" ry="2.02159" transform="rotate(-1.68443 91.5409 60.558)" fill="white"/>
<path d="M4.50014 47.0003C4.16681 44.667 4.60014 40.0003 9.00014 40.0003H65C66.1667 39.5003 68.9 39.7003 70.5 44.5003L84.5 93H113C115.333 94 118.9 97 114.5 101H84.5H23.5C22.5 100 20.8 97.7 22 96.5C20.8333 96.8333 18.2 96.6 17 93L4.50014 47.0003Z" fill="#B2B2B2"/>
<path d="M65 40.0003H9.00014C4.60014 40.0003 4.16681 44.667 4.50014 47.0003L17 93C18.2 96.6 20.8333 96.8333 22 96.5M65 40.0003C66.1667 39.5003 68.9 39.7003 70.5 44.5003L84.5 93M65 40.0003C61.4 40.0003 61.1667 44.0001 61.5 46L75.5 96.5M84.5 93H113C115.333 94 118.9 97 114.5 101H84.5M84.5 93C84.0269 93.8515 82.8664 95.122 81 95.915M22 96.5C20.8 97.7 22.5 100 23.5 101H84.5M22 96.5H75.5M75.5 96.5C77.748 96.8459 79.5787 96.5189 81 95.915M84.5 101C82.8333 100.777 79.8 99.447 81 95.915" stroke="black"/>
<path d="M110.5 97H106.5" stroke="black"/>
<path d="M105 97H101" stroke="black"/>
<ellipse cx="37.9998" cy="70.5001" rx="4" ry="5.5" transform="rotate(-11.9914 37.9998 70.5001)" fill="#D9D9D9"/>
<path d="M182 76.5H158.5L160.5 106.5H179.5C179.9 101.3 181.333 84.3333 182 76.5Z" fill="#FCEDDD" stroke="black"/>
<path d="M181.5 81H158.5L160 97.5H180.5L181.5 81Z" fill="#BE785E" stroke="black"/>
<path d="M184.656 76C183.456 76.4 164.49 76.1667 155.156 76C154.356 72.8 156.823 71.6667 158.156 71.5C157.99 70.5 158.056 68.3 159.656 67.5H179.156C179.823 68 181.156 69.5 181.156 71.5C183.956 71.5 184.656 74.5 184.656 76Z" fill="#5F4A39"/>
<path d="M181.156 71.5C183.956 71.5 184.656 74.5 184.656 76C183.456 76.4 164.49 76.1667 155.156 76C154.356 72.8 156.823 71.6667 158.156 71.5M181.156 71.5H158.156M181.156 71.5C181.156 69.5 179.823 68 179.156 67.5H159.656C158.056 68.3 157.99 70.5 158.156 71.5" stroke="black"/>
<path d="M170.5 62.5C170.5 61.5 170.1 59.4 168.5 59H161C159.667 58.1667 157.9 56.2 161.5 55H177C178.167 54.5 179.8 53.2 177 52H164.5" stroke="#FCEDDD"/>
<path d="M161.5 52H159.5" stroke="#FCEDDD"/>
<path d="M156.5 49H165.5" stroke="#FCEDDD"/>
</svg>
