<?xml version="1.0" standalone="no"?>
<svg xmlns:xlink="http://www.w3.org/1999/xlink" id="wave" style="transform:rotate(0deg); transition: 0.3s" viewBox="0 0 1440 370" version="1.1" xmlns="http://www.w3.org/2000/svg"><defs><linearGradient id="sw-gradient-0" x1="0" x2="0" y1="1" y2="0"><stop stop-color="rgba(51, 51, 51, 1)" offset="0%"/><stop stop-color="rgba(51, 51, 51, 1)" offset="100%"/></linearGradient></defs><path style="transform:translate(0, 0px); opacity:1" fill="url(#sw-gradient-0)" d="M0,0L144,74L288,333L432,37L576,74L720,74L864,111L1008,296L1152,333L1296,74L1440,37L1584,74L1728,222L1872,333L2016,296L2160,259L2304,0L2448,111L2592,333L2736,222L2880,222L3024,148L3168,111L3312,222L3456,259L3456,370L3312,370L3168,370L3024,370L2880,370L2736,370L2592,370L2448,370L2304,370L2160,370L2016,370L1872,370L1728,370L1584,370L1440,370L1296,370L1152,370L1008,370L864,370L720,370L576,370L432,370L288,370L144,370L0,370Z"/><defs><linearGradient id="sw-gradient-1" x1="0" x2="0" y1="1" y2="0"><stop stop-color="rgba(51, 51, 51, 1)" offset="0%"/><stop stop-color="rgba(51, 51, 51, 1)" offset="100%"/></linearGradient></defs><path style="transform:translate(0, 50px); opacity:0.9" fill="url(#sw-gradient-1)" d="M0,37L144,333L288,296L432,222L576,222L720,0L864,111L1008,111L1152,296L1296,296L1440,37L1584,259L1728,74L1872,259L2016,148L2160,222L2304,296L2448,333L2592,296L2736,185L2880,259L3024,222L3168,296L3312,333L3456,296L3456,370L3312,370L3168,370L3024,370L2880,370L2736,370L2592,370L2448,370L2304,370L2160,370L2016,370L1872,370L1728,370L1584,370L1440,370L1296,370L1152,370L1008,370L864,370L720,370L576,370L432,370L288,370L144,370L0,370Z"/><defs><linearGradient id="sw-gradient-2" x1="0" x2="0" y1="1" y2="0"><stop stop-color="rgba(51, 51, 51, 1)" offset="0%"/><stop stop-color="rgba(51, 51, 51, 1)" offset="100%"/></linearGradient></defs><path style="transform:translate(0, 100px); opacity:0.8" fill="url(#sw-gradient-2)" d="M0,222L144,0L288,37L432,296L576,148L720,259L864,296L1008,296L1152,74L1296,185L1440,111L1584,111L1728,296L1872,333L2016,74L2160,296L2304,148L2448,111L2592,74L2736,333L2880,74L3024,148L3168,333L3312,185L3456,259L3456,370L3312,370L3168,370L3024,370L2880,370L2736,370L2592,370L2448,370L2304,370L2160,370L2016,370L1872,370L1728,370L1584,370L1440,370L1296,370L1152,370L1008,370L864,370L720,370L576,370L432,370L288,370L144,370L0,370Z"/></svg>