<?xml version="1.0" standalone="no"?>
<svg xmlns:xlink="http://www.w3.org/1999/xlink" id="wave" style="transform:rotate(0deg); transition: 0.3s" viewBox="0 0 1440 220" version="1.1" xmlns="http://www.w3.org/2000/svg"><defs><linearGradient id="sw-gradient-0" x1="0" x2="0" y1="1" y2="0"><stop stop-color="rgba(51, 51, 51, 1)" offset="0%"/><stop stop-color="rgba(51, 51, 51, 1)" offset="100%"/></linearGradient></defs><path style="transform:translate(0, 0px); opacity:1" fill="url(#sw-gradient-0)" d="M0,0L480,44L960,198L1440,22L1920,44L2400,44L2880,66L3360,176L3840,198L4320,44L4800,22L5280,44L5760,132L6240,198L6720,176L7200,154L7680,0L8160,66L8640,198L9120,132L9600,132L10080,88L10560,66L11040,132L11520,154L11520,220L11040,220L10560,220L10080,220L9600,220L9120,220L8640,220L8160,220L7680,220L7200,220L6720,220L6240,220L5760,220L5280,220L4800,220L4320,220L3840,220L3360,220L2880,220L2400,220L1920,220L1440,220L960,220L480,220L0,220Z"/><defs><linearGradient id="sw-gradient-1" x1="0" x2="0" y1="1" y2="0"><stop stop-color="rgba(51, 51, 51, 1)" offset="0%"/><stop stop-color="rgba(51, 51, 51, 1)" offset="100%"/></linearGradient></defs><path style="transform:translate(0, 50px); opacity:0.9" fill="url(#sw-gradient-1)" d="M0,22L480,198L960,176L1440,132L1920,132L2400,0L2880,66L3360,66L3840,176L4320,176L4800,22L5280,154L5760,44L6240,154L6720,88L7200,132L7680,176L8160,198L8640,176L9120,110L9600,154L10080,132L10560,176L11040,198L11520,176L11520,220L11040,220L10560,220L10080,220L9600,220L9120,220L8640,220L8160,220L7680,220L7200,220L6720,220L6240,220L5760,220L5280,220L4800,220L4320,220L3840,220L3360,220L2880,220L2400,220L1920,220L1440,220L960,220L480,220L0,220Z"/><defs><linearGradient id="sw-gradient-2" x1="0" x2="0" y1="1" y2="0"><stop stop-color="rgba(51, 51, 51, 1)" offset="0%"/><stop stop-color="rgba(51, 51, 51, 1)" offset="100%"/></linearGradient></defs><path style="transform:translate(0, 100px); opacity:0.8" fill="url(#sw-gradient-2)" d="M0,132L480,0L960,22L1440,176L1920,88L2400,154L2880,176L3360,176L3840,44L4320,110L4800,66L5280,66L5760,176L6240,198L6720,44L7200,176L7680,88L8160,66L8640,44L9120,198L9600,44L10080,88L10560,198L11040,110L11520,154L11520,220L11040,220L10560,220L10080,220L9600,220L9120,220L8640,220L8160,220L7680,220L7200,220L6720,220L6240,220L5760,220L5280,220L4800,220L4320,220L3840,220L3360,220L2880,220L2400,220L1920,220L1440,220L960,220L480,220L0,220Z"/></svg>